# xmcd
#
# Track frame offsets:
#	150
#	26697
#	43924
#	67610
#	89441
#	115919
#	142080
#	164448
#	186810
#	213288
#
# Disc length: 3204 seconds
#
# Revision: 0
# Processed by: cddbd v1.5.2PL0 Copyright (c) Steve Scherf et al.
# Submitted via: audiograbber 1.81.03
#
DISCID=8b0c820a
DTITLE=Runaway Train - Somewhere Down The Road (remastered)
DYEAR=1994
DGENRE=Hard Rock
TTITLE0=Keep The Lightning
TTITLE1=Runaway Train
TTITLE2=Fistful Of Dreams
TTITLE3=The Seagull Song
TTITLE4=Fly High
TTITLE5=Somewhere Down The Road
TTITLE6=Smile For Me
TTITLE7=I've Had Enough
TTITLE8=Heartbreaker
TTITLE9=It Doesn't Matter
EXTD=
EXTT0=
EXTT1=
EXTT2=
EXTT3=
EXTT4=
EXTT5=
EXTT6=
EXTT7=
EXTT8=
EXTT9=
PLAYORDER=
